# xmcd CD database file
#
# Track frame offsets:
#	150
#	18200
#	46568
#	70821
#	89098
#	116474
#	138538
#	155759
#	170684
#	188738
#	214109
#	230803
#
# Disc length: 3312 seconds
#
# Revision: 2
# Processed by: cddbd v1.5.2PL0 Copyright (c) Steve Scherf et al.
# Submitted via: CDex 1.70beta2
#
DISCID=a60cee0c
DTITLE=Silke Hauck - frozen tears
DYEAR=2007
DGENRE=Jazz
TTITLE0=everybody
TTITLE1=almost springtime
TTITLE2=frozen tears
TTITLE3=you make me smile
TTITLE4=after the good years
TTITLE5=don't ask for more
TTITLE6=day by day
TTITLE7=the man I love
TTITLE8=I won't cry
TTITLE9=heaven knows
TTITLE10=why the hesitation ?
TTITLE11=mistakes
EXTD=YEAR: 2007
EXTT0=
EXTT1=
EXTT2=
EXTT3=
EXTT4=
EXTT5=
EXTT6=
EXTT7=
EXTT8=
EXTT9=
EXTT10=
EXTT11=
PLAYORDER=
